<svg width="623" height="346" viewBox="0 0 623 346" fill="none" xmlns="http://www.w3.org/2000/svg">
<path d="M103.833 207.6H519.167C538.203 207.6 553.778 192.03 553.778 173C553.778 153.97 538.203 138.4 519.167 138.4H103.833C84.7972 138.4 69.2222 153.97 69.2222 173C69.2222 192.03 84.7972 207.6 103.833 207.6ZM34.6111 346H449.944C468.981 346 484.556 330.43 484.556 311.4C484.556 292.37 468.981 276.8 449.944 276.8H34.6111C15.575 276.8 0 292.37 0 311.4C0 330.43 15.575 346 34.6111 346ZM138.444 34.6C138.444 53.63 154.019 69.2 173.056 69.2H588.389C607.425 69.2 623 53.63 623 34.6C623 15.57 607.425 0 588.389 0H173.056C154.019 0 138.444 15.57 138.444 34.6Z" fill="white"/>
</svg>
