<svg width="376" height="334" viewBox="0 0 376 334" fill="none" xmlns="http://www.w3.org/2000/svg">
<path d="M262.618 225.009L283.508 204.137C286.771 200.876 292.451 203.159 292.451 207.855V302.692C292.451 319.977 278.416 334 261.117 334H31.334C14.035 334 0 319.977 0 302.692V73.1007C0 55.8161 14.035 41.7928 31.334 41.7928H209.873C214.507 41.7928 216.857 47.4021 213.594 50.7286L192.704 71.6005C191.725 72.5789 190.419 73.1007 188.983 73.1007H31.334V302.692H261.117V228.662C261.117 227.292 261.639 225.988 262.618 225.009ZM364.845 93.3856L193.422 264.666L134.41 271.189C117.307 273.08 102.749 258.665 104.643 241.446L111.17 182.483L282.594 11.2024C297.543 -3.73412 321.696 -3.73412 336.579 11.2024L364.78 39.3795C379.729 54.316 379.729 78.5144 364.845 93.3856ZM300.35 113.54L262.422 75.6445L141.134 196.897L136.368 239.489L178.996 234.728L300.35 113.54ZM342.65 61.5559L314.45 33.3788C311.773 30.7046 307.4 30.7046 304.789 33.3788L284.617 53.5333L322.544 91.4289L342.716 71.2744C345.327 68.535 345.327 64.2301 342.65 61.5559Z" fill="white"/>
</svg>
