<svg width="341" height="379" viewBox="0 0 341 379" fill="none" xmlns="http://www.w3.org/2000/svg">
<path fill-rule="evenodd" clip-rule="evenodd" d="M146.265 6.49741C153.092 2.55412 160.779 0.335958 168.658 0.0352658C176.536 -0.265426 184.37 1.36043 191.478 4.77186L194.735 6.49741L316.765 76.9348C323.628 80.8956 329.415 86.4785 333.62 93.1947C337.825 99.9109 340.319 107.556 340.884 115.459L341 118.91V259.824C340.998 267.745 339.055 275.546 335.34 282.542C331.626 289.539 326.253 295.518 319.692 299.957L316.784 301.799L194.735 372.256C187.908 376.199 180.221 378.418 172.342 378.718C164.463 379.019 156.63 377.393 149.522 373.982L146.265 372.237L24.2353 301.838C17.3723 297.877 11.5851 292.294 7.3803 285.578C3.1755 278.862 0.681372 271.217 0.116325 263.314L0 259.863V118.93C0.00390369 111.006 1.95007 103.205 5.66811 96.2083C9.38616 89.2116 14.7627 83.2331 21.327 78.7961L24.2353 76.9542L146.265 6.49741ZM175.347 40.0778C174.124 39.3724 172.761 38.9427 171.355 38.8188C169.948 38.6949 168.532 38.8798 167.204 39.3604L165.653 40.0778L43.6235 110.535C42.4017 111.241 41.3488 112.205 40.5384 113.361C39.728 114.516 39.1796 115.834 38.9315 117.224L38.7764 118.93V259.843C38.7779 261.255 39.0875 262.649 39.6836 263.928C40.2796 265.207 41.1478 266.341 42.2275 267.25L43.6235 268.219L165.653 338.695C166.876 339.401 168.239 339.83 169.645 339.954C171.052 340.078 172.468 339.893 173.796 339.412L175.347 338.695L297.376 268.238C298.602 267.534 299.659 266.571 300.472 265.415C301.286 264.26 301.838 262.94 302.088 261.549L302.224 259.843V118.93C302.224 117.52 301.918 116.127 301.325 114.848C300.733 113.569 299.868 112.434 298.792 111.523L297.376 110.535L175.347 40.0778ZM170.5 111.834C191.068 111.834 210.794 120.004 225.338 134.548C239.882 149.092 248.053 168.818 248.053 189.386C248.053 209.955 239.882 229.681 225.338 244.225C210.794 258.769 191.068 266.939 170.5 266.939C149.932 266.939 130.206 258.769 115.662 244.225C101.118 229.681 92.9471 209.955 92.9471 189.386C92.9471 168.818 101.118 149.092 115.662 134.548C130.206 120.004 149.932 111.834 170.5 111.834ZM170.5 150.61C160.216 150.61 150.353 154.695 143.081 161.967C135.809 169.239 131.724 179.102 131.724 189.386C131.724 199.671 135.809 209.534 143.081 216.806C150.353 224.078 160.216 228.163 170.5 228.163C180.784 228.163 190.647 224.078 197.919 216.806C205.191 209.534 209.276 199.671 209.276 189.386C209.276 179.102 205.191 169.239 197.919 161.967C190.647 154.695 180.784 150.61 170.5 150.61Z" fill="white"/>
</svg>
