<svg width="307" height="356" viewBox="0 0 307 356" fill="none" xmlns="http://www.w3.org/2000/svg">
<path d="M239.479 220.821C223.034 220.795 207.15 226.807 194.836 237.719L132.207 197.472C136.094 184.653 136.094 170.967 132.207 158.148L194.836 117.901C207.027 128.625 222.68 134.576 238.909 134.655C255.138 134.735 270.848 128.939 283.144 118.336C295.439 107.733 303.49 93.0383 305.812 76.9608C308.134 60.8833 304.57 44.5076 295.778 30.8533C286.986 17.1991 273.558 7.18699 257.971 2.66329C242.384 -1.86041 225.688 -0.59068 210.963 6.23835C196.237 13.0674 184.475 24.9952 177.845 39.8224C171.215 54.6495 170.164 71.3762 174.886 86.918L112.241 127.118C102.499 118.501 90.4789 112.881 77.6242 110.935C64.7694 108.989 51.6267 110.798 39.7744 116.146C27.9221 121.494 17.8642 130.154 10.8087 141.084C3.75314 152.014 0 164.751 0 177.764C0 190.777 3.75314 203.514 10.8087 214.444C17.8642 225.375 27.9221 234.034 39.7744 239.382C51.6267 244.73 64.7694 246.539 77.6242 244.593C90.4789 242.647 102.499 237.027 112.241 228.41L174.87 268.748C170.738 282.352 170.997 296.913 175.61 310.361C180.223 323.809 188.956 335.458 200.566 343.651C212.175 351.844 226.07 356.164 240.274 355.995C254.478 355.827 268.267 351.179 279.68 342.713C291.093 334.248 299.547 322.395 303.841 308.842C308.135 295.288 308.049 280.725 303.596 267.223C299.143 253.721 290.55 241.969 279.039 233.638C267.527 225.307 253.684 220.822 239.479 220.821ZM239.479 36.4872C245.55 36.4872 251.484 38.289 256.532 41.6648C261.579 45.0406 265.513 49.8388 267.836 55.4526C270.159 61.0664 270.767 67.2436 269.583 73.2032C268.399 79.1627 265.475 84.637 261.183 88.9336C256.89 93.2302 251.421 96.1562 245.467 97.3416C239.514 98.527 233.342 97.9186 227.734 95.5933C222.125 93.268 217.332 89.3303 213.959 84.278C210.586 79.2257 208.786 73.2859 208.786 67.2095C208.786 59.0615 212.02 51.2471 217.776 45.4855C223.532 39.724 231.339 36.4872 239.479 36.4872ZM67.5976 208.533C61.527 208.533 55.5928 206.731 50.5453 203.355C45.4979 199.979 41.5638 195.181 39.2407 189.567C36.9176 183.953 36.3098 177.776 37.4941 171.816C38.6784 165.857 41.6017 160.383 45.8942 156.086C50.1867 151.79 55.6557 148.864 61.6096 147.678C67.5635 146.493 73.7349 147.101 79.3433 149.426C84.9518 151.752 89.7454 155.689 93.118 160.742C96.4906 165.794 98.2908 171.734 98.2908 177.81C98.2908 185.958 95.057 193.773 89.3009 199.534C83.5448 205.296 75.7379 208.533 67.5976 208.533ZM239.479 319.133C233.409 319.133 227.475 317.331 222.427 313.955C217.38 310.58 213.446 305.781 211.123 300.168C208.8 294.554 208.192 288.377 209.376 282.417C210.56 276.458 213.484 270.983 217.776 266.687C222.069 262.39 227.538 259.464 233.492 258.279C239.445 257.093 245.617 257.702 251.225 260.027C256.834 262.352 261.627 266.29 265 271.342C268.373 276.395 270.173 282.334 270.173 288.411C270.173 296.559 266.939 304.373 261.183 310.135C255.427 315.896 247.62 319.133 239.479 319.133Z" fill="white"/>
</svg>
