<svg width="636" height="445" viewBox="0 0 636 445" fill="none" xmlns="http://www.w3.org/2000/svg">
<path d="M630.886 155.665L510.205 15.172C506.225 10.4214 501.25 6.60076 495.632 3.97936C490.014 1.35795 483.889 -0.000407002 477.689 9.14755e-08H42.4C31.1548 9.14755e-08 20.3702 4.46345 12.4187 12.4085C4.46713 20.3535 0 31.1292 0 42.3651V338.921C0 350.157 4.46713 360.933 12.4187 368.878C20.3702 376.823 31.1548 381.286 42.4 381.286H87.45C92.1204 399.512 102.729 415.666 117.603 427.202C132.477 438.738 150.771 445 169.6 445C188.429 445 206.723 438.738 221.597 427.202C236.471 415.666 247.08 399.512 251.75 381.286H384.25C388.92 399.512 399.529 415.666 414.403 427.202C429.277 438.738 447.571 445 466.4 445C485.229 445 503.523 438.738 518.397 427.202C533.271 415.666 543.88 399.512 548.55 381.286H593.6C604.845 381.286 615.63 376.823 623.581 368.878C631.533 360.933 636 350.157 636 338.921V169.461C635.999 164.399 634.185 159.506 630.886 155.665ZM42.4 148.278V42.3651H190.8V148.278H42.4ZM169.6 402.469C161.214 402.469 153.016 399.984 146.044 395.329C139.071 390.674 133.637 384.057 130.428 376.316C127.218 368.575 126.379 360.057 128.015 351.839C129.651 343.621 133.689 336.072 139.619 330.147C145.548 324.222 153.103 320.187 161.328 318.553C169.553 316.918 178.078 317.757 185.826 320.963C193.573 324.17 200.195 329.6 204.854 336.567C209.513 343.534 212 351.725 212 360.104C212 371.34 207.533 382.115 199.581 390.06C191.63 398.005 180.845 402.469 169.6 402.469ZM381.6 148.278H233.2V42.3651H381.6V148.278ZM466.4 402.469C458.014 402.469 449.816 399.984 442.844 395.329C435.871 390.674 430.437 384.057 427.228 376.316C424.018 368.575 423.179 360.057 424.815 351.839C426.451 343.621 430.489 336.072 436.419 330.147C442.348 324.222 449.903 320.187 458.128 318.553C466.353 316.918 474.878 317.757 482.626 320.963C490.373 324.17 496.995 329.6 501.654 336.567C506.313 343.534 508.8 351.725 508.8 360.104C508.8 371.34 504.333 382.115 496.381 390.06C488.43 398.005 477.645 402.469 466.4 402.469ZM424 148.278V42.3651H477.689L568.664 148.278H424Z" fill="white"/>
</svg>
